<svg xmlns="http://www.w3.org/2000/svg" viewBox="0 0 32 32" fill="none">
  <rect width="32" height="32" rx="6" fill="#2563eb"/>
  <path d="M24 18.5c0 2.5-2 4.5-4.5 4.5H10c-2.8 0-5-2.2-5-5 0-2.5 1.8-4.5 4.2-4.9C9.8 10.3 12.1 8 15 8c2.5 0 4.6 1.7 5.3 4 .2 0 .5-.1.7-.1 1.7 0 3 1.3 3 3v.1c0 0 0 0 0 0 0 1.9-1.6 3.5-3.5 3.5" stroke="white" stroke-width="2" stroke-linecap="round" stroke-linejoin="round"/>
  <path d="M12 17l2.5 2.5L19 15" stroke="white" stroke-width="2" stroke-linecap="round" stroke-linejoin="round"/>
</svg>
